<svg width="183" height="162" viewBox="0 0 183 162" fill="none" xmlns="http://www.w3.org/2000/svg">
<path d="M36.1238 0.158142H148.303C150 0.158142 151.626 0.831961 152.826 2.03137C154.025 3.23078 154.698 4.85749 154.698 6.55376V13.6152H29.7281V6.55376C29.7281 4.85749 30.4021 3.23078 31.6014 2.03137C32.8008 0.831961 34.4277 0.158142 36.1238 0.158142Z" fill="#1444AF"/>
<path d="M29.7281 13.6151H154.698V126.894C154.698 128.429 154.397 129.95 153.809 131.368C153.221 132.787 152.361 134.076 151.274 135.161C150.19 136.247 148.9 137.108 147.482 137.696C146.062 138.283 144.542 138.586 143.007 138.586H41.42C39.8847 138.586 38.3643 138.283 36.9458 137.696C35.5272 137.108 34.2383 136.247 33.1527 135.161C32.0669 134.076 31.2058 132.787 30.6182 131.368C30.0307 129.95 29.7281 128.429 29.7281 126.894V13.6151Z" fill="url(#paint0_linear_2268_4782)"/>
<path d="M111.381 93.9706H77.1033V110.618H111.381V93.9706Z" fill="#FFCCB3"/>
<path d="M76.9014 104.233C72.8814 108.189 71.2998 127.669 71.5115 138.586H119.365C119.365 138.586 119.279 114.778 115.651 106.755C112.314 99.3772 106.769 110.261 76.9014 104.233Z" fill="#1F2D49"/>
<path d="M105.621 18.2102C105.621 18.2102 109.592 13.6813 117.299 13.0224C125.006 12.3635 127.312 19.1138 126.982 23.2611C126.653 27.4083 120.613 35.9739 121.821 39.598C123.029 43.2218 117.349 41.4649 116.73 34.2168C116.111 26.969 113.804 16.866 107.545 20.4898L105.621 18.2102Z" fill="#080B09"/>
<path d="M106.827 16.0902C106.827 16.0902 107.776 15.5399 108.464 16.8235C109.151 18.107 110.436 20.7134 108.808 21.4043C107.18 22.0954 106.827 16.0902 106.827 16.0902Z" fill="#1444AF"/>
<path d="M84.8111 57.8307C84.8111 57.8307 90.9678 64.741 88.9202 66.9576C84.8649 71.5131 74.0786 80.075 70.5445 82.9091C70.3919 83.026 70.2177 83.1114 70.0318 83.1605C69.8461 83.2098 69.6524 83.2217 69.4621 83.1957C69.2717 83.1696 69.0882 83.1062 68.9226 83.0089C68.7568 82.9115 68.6119 82.7826 68.4963 82.6291L60.1391 71.6415C59.8123 71.2185 59.6599 70.6864 59.7132 70.1544C59.7666 69.6226 60.0215 69.1313 60.4257 68.7815L76.6137 54.8223L84.8111 57.8307Z" fill="#1444AF"/>
<path d="M75.0914 66.616C75.0914 66.616 67.4188 71.1763 66.7273 80.3391L68.2554 82.3022C68.2554 82.3022 69.2148 83.9743 70.5445 82.9092C71.8742 81.8441 78.0247 76.9173 78.0247 76.9173L75.0914 66.616Z" fill="#0E66AF"/>
<path d="M82.2653 70.0896C87.0512 70.0896 90.9311 66.2099 90.9311 61.4239C90.9311 56.638 87.0512 52.7581 82.2653 52.7581C77.4795 52.7581 73.5996 56.638 73.5996 61.4239C73.5996 66.2099 77.4795 70.0896 82.2653 70.0896Z" fill="#1444AF"/>
<path d="M59.6999 88.5879L52.1268 78.5607L59.296 72.995L60.4197 72.0903L68.2752 82.3633L66.9074 83.3471L59.6999 88.5879Z" fill="#FFCCB3"/>
<path d="M66.9073 83.3471C64.8787 80.6312 61.0639 75.323 59.296 72.995L60.4197 72.0903L68.2554 82.3021L66.9073 83.3471Z" fill="#FF967C"/>
<path d="M55.7983 89.9789C59.2725 89.9789 62.089 87.1624 62.089 83.6882C62.089 80.2138 59.2725 77.3973 55.7983 77.3973C52.3239 77.3973 49.5074 80.2138 49.5074 83.6882C49.5074 87.1624 52.3239 89.9789 55.7983 89.9789Z" fill="#FFCCB3"/>
<path d="M61.1247 80.304C61.1247 80.304 40.832 50.5029 39.894 47.972C38.9811 45.5004 34.188 51.4479 34.188 51.4479L49.8934 85.7138L61.1247 80.304Z" fill="#FFCCB3"/>
<path d="M89.0618 38.745L86.6224 55.7531C86.6224 55.7531 85.9819 58.0106 88.824 58.3522C91.6661 58.6941 97.7263 57.9304 99.8905 55.624C102.055 53.3176 101.298 52.1749 101.298 52.1749L96.7075 33.7143L89.0618 38.745Z" fill="#FFCCB3"/>
<path d="M88.7224 40.946L94.6897 38.8383L87.2969 49.7952L88.7224 40.946Z" fill="#FF967C"/>
<path d="M82.3104 17.7367C82.3104 17.7367 77.1909 29.7656 79.8591 38.0099C81.5991 43.3866 85.3883 44.3532 94.0665 40.3239C102.024 36.6296 104.09 33.8349 104.09 33.8349L105.264 20.4257C105.264 20.4257 87.5096 7.01522 82.3104 17.7367Z" fill="#FFCCB3"/>
<path d="M86.5792 50.8631C86.5792 50.8631 80.0212 52.6851 78.6904 53.7498C77.3594 54.8146 76.3914 63.4688 74.4244 67.7435C71.5123 74.0719 69.627 77.4386 74.5193 84.3932C77.4699 88.5879 76.4666 99.2517 76.4666 99.2517H112.391C111.303 78.2834 116.12 53.5653 116.12 53.5653L99.906 49.8292C96.2503 50.4595 86.5792 50.8631 86.5792 50.8631Z" fill="#1444AF"/>
<path d="M85.4325 51.2014C85.4325 51.2014 85.9174 47.9053 87.4672 47.6732C89.017 47.4412 98.4877 46.0166 99.9609 46.637C101.434 47.2572 103.217 51.2014 103.217 51.2014C103.217 51.2014 100.193 58.5766 95.8518 58.9641C91.5101 59.3519 84.0373 58.0135 84.8275 55.2713C85.6178 52.5293 85.4325 51.2014 85.4325 51.2014Z" fill="#1444AF"/>
<path d="M82.4829 52.2034C82.4829 52.2034 83.5305 58.5644 89.2202 58.4641C94.9098 58.3636 103.178 49.8292 103.178 49.8292" stroke="white" stroke-width="0.252522" stroke-miterlimit="10"/>
<path d="M108.261 61.4239C108.261 61.4239 102.607 65.1618 104.273 68.9335C106.146 73.1744 106.129 84.0965 100.755 84.7811C91.1656 86.0023 95.3321 87.6792 99.7659 88.7508C104.2 89.8222 102.385 89.8234 102.385 94.4168C102.385 97.686 112.658 100.52 112.391 97.879C110.605 80.2057 118.031 69.0149 108.261 61.4239Z" fill="#0E66AF"/>
<path d="M81.8541 35.4345L86.6164 35.6701C86.5994 35.7287 86.5736 35.8089 86.5362 35.9032C86.4552 36.1079 86.3209 36.3775 86.1078 36.6386C85.6852 37.1563 84.9473 37.6483 83.6725 37.5193C82.8673 37.365 82.4096 36.8238 82.1504 36.3113C82.0207 36.0547 81.942 35.807 81.8958 35.6236C81.8768 35.5482 81.8632 35.484 81.8541 35.4345Z" fill="#E56441" stroke="#E56441" stroke-width="0.186076"/>
<path d="M82.1684 27.5269C82.3673 26.7891 82.1228 26.0817 81.6223 25.9466C81.1217 25.8115 80.5546 26.3001 80.3555 27.0379C80.1565 27.7757 80.401 28.4832 80.9016 28.6183C81.4021 28.7532 81.9693 28.2647 82.1684 27.5269Z" fill="#080B09"/>
<path d="M89.5357 29.6278C89.7346 28.89 89.4903 28.1825 88.9896 28.0474C88.489 27.9125 87.9219 28.401 87.7228 29.1388C87.5239 29.8765 87.7684 30.584 88.2689 30.7191C88.7696 30.8542 89.3366 30.3656 89.5357 29.6278Z" fill="#080B09"/>
<path d="M80.3054 23.7161L84.0506 24.7928C84.1157 24.8058 84.1834 24.7946 84.2411 24.7615C84.2988 24.7284 84.3424 24.6755 84.3641 24.6127C84.3812 24.4945 84.3742 24.3741 84.3437 24.2587C84.313 24.1432 84.2592 24.0353 84.1855 23.9413C84.112 23.8471 84.0201 23.769 83.9155 23.7115C83.8109 23.654 83.6957 23.6181 83.5768 23.6064L80.3601 23.2679C80.1134 23.2013 79.9969 23.633 80.3054 23.7161Z" fill="#080B09"/>
<path d="M93.1095 26.9176L88.0305 25.8784C88.0765 25.7273 88.1535 25.5873 88.2568 25.4679C88.3601 25.3482 88.4872 25.2516 88.6301 25.1843C88.7728 25.1169 88.9282 25.0801 89.0861 25.0764C89.2441 25.0726 89.401 25.102 89.5469 25.1627L93.2542 26.626C93.3774 26.6591 93.2942 26.9676 93.1095 26.9176Z" fill="#080B09"/>
<path d="M84.4334 27.7379L82.0244 30.982L82.9315 32.2646" stroke="#E56441" stroke-width="0.416589" stroke-linecap="round"/>
<path d="M88.9133 63.1307C89.3798 63.1307 89.7579 62.086 89.7579 60.7973C89.7579 59.5087 89.3798 58.4639 88.9133 58.4639C88.4468 58.4639 88.0687 59.5087 88.0687 60.7973C88.0687 62.086 88.4468 63.1307 88.9133 63.1307Z" fill="white"/>
<path d="M127.842 95.235L115.318 96.2612L113.18 87.1849L110.605 80.2056L123.785 78.6282L125.433 86.4393L127.842 95.235Z" fill="#FFCCB3"/>
<path d="M124.23 80.7376L124.692 82.9279L111.713 83.2072L110.859 80.8935L124.23 80.7376Z" fill="#FF967C"/>
<path d="M113.965 70.6246C118.751 70.6246 122.63 66.7449 122.63 61.9588C122.63 57.173 118.751 53.2931 113.965 53.2931C109.179 53.2931 105.299 57.173 105.299 61.9588C105.299 66.7449 109.179 70.6246 113.965 70.6246Z" fill="#1444AF"/>
<path d="M112.293 57.8849C112.293 57.8849 121.426 56.3857 122.202 59.3021C123.877 65.1664 125.937 74.5809 126.438 79.0834C126.455 79.2747 126.433 79.4677 126.376 79.651C126.318 79.8341 126.224 80.0041 126.1 80.1509C125.976 80.2978 125.824 80.4187 125.653 80.5065C125.483 80.5944 125.296 80.6476 125.104 80.663L111.35 81.8372C110.817 81.8865 110.287 81.7304 109.866 81.4004C109.445 81.0705 109.167 80.5921 109.088 80.0635L105.363 63.1966L112.293 57.8849Z" fill="#1444AF"/>
<path d="M85.5022 16.5932C85.5022 16.5932 85.8262 22.436 90.7758 25.2673C90.7758 25.2673 92.2233 29.7486 97.6253 30.8026C97.6253 30.8026 97.3061 26.6838 99.8809 26.7273C104.253 26.8014 102.102 33.4333 99.1466 34.5213C97.1377 35.2607 95.9279 37.8852 98.9097 43.8662C105.757 41.4241 110.572 31.5614 108.684 20.6192C107.172 11.8565 96.3091 8.99501 94.0772 9.28045C94.0772 9.28045 84.808 6.07827 79.9274 14.8605C75.7552 22.3679 79.6516 26.8484 79.6516 26.8484L81.8752 20.1668C81.8752 20.1668 82.8039 20.819 85.5022 16.5932Z" fill="#080B09"/>
<path d="M127.888 116.886H94.7174C94.0758 116.886 93.4563 116.652 92.9752 116.228C92.4942 115.803 92.1845 115.217 92.1049 114.581L89.0432 90.1454C88.9967 89.7749 89.0296 89.3987 89.1398 89.042C89.2497 88.6851 89.4345 88.3557 89.6816 88.0757C89.9287 87.7958 90.2324 87.5716 90.5729 87.4181C90.9133 87.2644 91.2824 87.1849 91.6557 87.1849H130.95C131.323 87.1849 131.693 87.2644 132.033 87.4181C132.373 87.5716 132.677 87.7958 132.924 88.0757C133.171 88.3557 133.356 88.6851 133.466 89.042C133.576 89.3987 133.609 89.7749 133.563 90.1454L130.501 114.581C130.421 115.217 130.112 115.803 129.631 116.228C129.149 116.652 128.53 116.886 127.888 116.886Z" fill="url(#paint1_linear_2268_4782)"/>
<path d="M111.381 103.908C112.667 103.908 113.709 102.866 113.709 101.58C113.709 100.294 112.667 99.2518 111.381 99.2518C110.095 99.2518 109.053 100.294 109.053 101.58C109.053 102.866 110.095 103.908 111.381 103.908Z" fill="white"/>
<path d="M35.0505 53.4057L33.0516 49.5709C33.0516 49.5709 25.9837 45.5278 25.1646 44.0662C24.3453 42.6042 24.0234 38.4305 25.4735 37.3619C25.4735 37.3619 19.8345 33.1264 20.7944 32.2682C21.7512 31.3479 32.8304 39.5782 32.8304 39.5782C32.8304 39.5782 31.4815 33.5147 33.5313 33.2306C34.0866 35.5807 35.0378 37.8192 36.3443 39.8501C38.5024 43.1868 38.7683 46.1754 38.7683 46.1754L41.3117 51.0569L35.0505 53.4057Z" fill="#FFCCB3"/>
<path d="M25.8537 37.469L29.2687 39.6211" stroke="#FF967C" stroke-width="0.534388" stroke-linecap="round" stroke-linejoin="round"/>
<path d="M25.3446 39.9312L28.2429 41.7328" stroke="#FF967C" stroke-width="0.534388" stroke-linecap="round" stroke-linejoin="round"/>
<path d="M25.9078 42.593L27.841 43.8147" stroke="#FF967C" stroke-width="0.534388" stroke-linecap="round" stroke-linejoin="round"/>
<path d="M39.2126 8.51428C40.1115 8.51428 40.8402 7.7856 40.8402 6.88667C40.8402 5.98774 40.1115 5.25906 39.2126 5.25906C38.3136 5.25906 37.585 5.98774 37.585 6.88667C37.585 7.7856 38.3136 8.51428 39.2126 8.51428Z" fill="white"/>
<path d="M45.7863 8.51428C46.6852 8.51428 47.4139 7.7856 47.4139 6.88667C47.4139 5.98774 46.6852 5.25906 45.7863 5.25906C44.8874 5.25906 44.1587 5.98774 44.1587 6.88667C44.1587 7.7856 44.8874 8.51428 45.7863 8.51428Z" fill="white"/>
<path d="M51.9629 8.51428C52.8619 8.51428 53.5905 7.7856 53.5905 6.88667C53.5905 5.98774 52.8619 5.25906 51.9629 5.25906C51.064 5.25906 50.3353 5.98774 50.3353 6.88667C50.3353 7.7856 51.064 8.51428 51.9629 8.51428Z" fill="white"/>
<path opacity="0.7" d="M3.07184 6.68721C9.61557 12.268 26.8728 24.9926 48.7903 25.6005C49.2386 25.6139 49.6638 25.8017 49.9758 26.1238C50.2879 26.4457 50.462 26.8768 50.4615 27.3253V62.0532C50.4617 62.4962 50.2916 62.9223 49.9862 63.2433C49.6809 63.5643 49.2637 63.7556 48.8212 63.7775C42.2315 64.1054 17.2428 64.0673 0.685045 46.34C0.389742 46.0216 0.226366 45.603 0.227669 45.1688V8.00239C0.227483 7.67285 0.321637 7.35001 0.499154 7.0722C0.67667 6.79457 0.92992 6.57333 1.22913 6.43508C1.52815 6.29664 1.86086 6.24677 2.18742 6.29161C2.51398 6.33627 2.82082 6.47341 3.07184 6.68721Z" fill="#FF9D29"/>
<path d="M5.55408 16.921C5.55408 16.921 10.7179 21.9385 17.7761 25.0553" stroke="white" stroke-width="1.38307" stroke-miterlimit="10" stroke-linecap="round"/>
<path opacity="0.4" d="M5.55408 23.004C5.55408 23.004 12.7407 29.7074 22.0893 32.1963" stroke="white" stroke-width="1.38307" stroke-miterlimit="10" stroke-linecap="round"/>
<path d="M4.48358 45.2472V30.7416L9.56922 34.3809V49.237L4.48358 45.2472Z" fill="white"/>
<path d="M13.0674 51.1085V40.7733L18.1531 43.8147V54.0316L13.0674 51.1085Z" fill="white"/>
<path d="M34.8138 59.1994V48.8641L29.7281 48.168V58.3849L34.8138 59.1994Z" fill="white"/>
<path d="M43.1673 59.6419V41.5468H38.0817V59.5237L43.1673 59.6419Z" fill="white"/>
<path d="M21.3979 55.6368V50.9116L26.4835 52.3418V57.4786L21.3979 55.6368Z" fill="white"/>
<g opacity="0.7">
<path opacity="0.7" d="M15.8089 78.6477C22.3527 83.4525 39.6099 95.9915 61.5274 94.0001C61.7405 93.9751 61.9567 93.9962 62.161 94.062C62.3653 94.1279 62.5531 94.2369 62.7116 94.3817C62.8701 94.5265 62.9957 94.7036 63.0797 94.9012C63.1636 95.0989 63.2041 95.3121 63.1986 95.5266V130.255C63.1874 130.714 63.0183 131.156 62.7194 131.506C62.4208 131.855 62.0107 132.091 61.5583 132.174C54.9684 133.283 27.5611 132.735 13.422 118.584C13.2757 118.437 13.16 118.263 13.0814 118.071C13.0029 117.879 12.9633 117.674 12.9648 117.467V80.3002C12.9648 78.8284 14.6889 77.8252 15.8089 78.6477Z" fill="#96BAFD"/>
</g>
<path d="M121.134 115.889C121.134 115.889 122.887 116.035 122.623 116.92C122.359 117.804 120.794 117.396 119.365 118.281C117.936 119.165 112.285 119.797 109.463 119.326C106.641 118.856 105.857 115.889 105.857 115.889C105.857 115.889 105.385 113.075 110.37 112.786C115.355 112.497 117.675 114.096 118.543 115.831L121.134 115.889Z" fill="#FFCCB3"/>
<path d="M107.976 113.223L109.053 116.119" stroke="#E56441" stroke-width="0.416589" stroke-linecap="round"/>
<path d="M110.765 112.752L111.841 115.648" stroke="#E56441" stroke-width="0.416589" stroke-linecap="round"/>
<path d="M113.709 112.997L114.786 115.893" stroke="#E56441" stroke-width="0.416589" stroke-linecap="round"/>
<path opacity="0.7" d="M174.188 81.4728C165.061 89.2574 140.989 107.007 110.416 107.855C109.791 107.874 109.198 108.136 108.762 108.585C108.327 109.034 108.084 109.635 108.085 110.261V158.703C108.085 159.321 108.322 159.915 108.748 160.363C109.174 160.811 109.756 161.078 110.373 161.108C119.565 161.565 154.421 161.512 177.519 136.785C177.93 136.34 178.159 135.757 178.157 135.151V83.3075C178.157 82.8477 178.025 82.3975 177.777 82.0099C177.53 81.6225 177.176 81.314 176.759 81.1211C176.343 80.9281 175.877 80.8587 175.423 80.921C174.967 80.9834 174.539 81.1748 174.188 81.4728Z" fill="#1444AF"/>
<path d="M170.727 95.748C170.727 95.748 163.524 102.747 153.679 107.095" stroke="white" stroke-width="1.92924" stroke-miterlimit="10" stroke-linecap="round"/>
<path opacity="0.4" d="M170.727 104.233C170.727 104.233 160.701 113.584 147.661 117.056" stroke="white" stroke-width="1.92924" stroke-miterlimit="10" stroke-linecap="round"/>
<path d="M114.38 140.083C114.38 140.083 121.079 138.68 124.142 135.431C128.201 131.125 129.137 125.962 133.583 125.431C140.562 124.597 144.607 149.235 153.079 145.902C161.551 142.568 159.549 124.17 164.59 121.051C168.062 118.903 169.867 125.292 174.729 123.625" stroke="white" stroke-width="1.92924" stroke-miterlimit="10" stroke-linecap="round"/>
<path opacity="0.7" d="M48.4483 119.866C53.4564 121.296 65.1725 123.851 80.5247 122.089C80.7714 122.054 81.0228 122.073 81.2614 122.145C81.4999 122.216 81.72 122.339 81.9063 122.505C82.0926 122.67 82.2407 122.874 82.3402 123.102C82.4398 123.331 82.4885 123.578 82.4829 123.827V147.521C82.4716 148.044 82.2762 148.546 81.9312 148.939C81.5862 149.331 81.1136 149.59 80.5967 149.669C75.1305 150.416 58.9002 152.015 46.8053 146.793C46.4959 146.656 46.2339 146.43 46.0524 146.144C45.871 145.859 45.7785 145.526 45.7863 145.187V121.962C45.7863 120.588 47.1693 119.501 48.4483 119.866Z" fill="url(#paint2_linear_2268_4782)"/>
<path d="M26.4586 113.785C22.807 112.497 19.847 108.493 19.847 104.842C19.847 101.19 22.807 99.2736 26.4586 100.561V96.3172C20.5594 94.2371 15.7773 97.3332 15.7773 103.232C15.7773 109.132 20.5594 115.6 26.4586 117.68C32.1086 119.672 36.7309 116.915 37.1116 111.495L33.0446 110.061C32.7571 113.346 29.9192 115.005 26.4586 113.785Z" fill="white"/>
<path d="M27.8149 95.4393V99.6831C31.4665 100.971 34.4266 104.975 34.4266 108.626C34.4266 108.817 34.4167 109.002 34.4009 109.183L38.4678 110.617C38.4845 110.378 38.4963 110.136 38.4963 109.887C38.4963 103.988 33.7139 97.5192 27.8149 95.4393Z" fill="#1444AF"/>
<path d="M26.4586 113.785V117.68" stroke="white" stroke-width="0.451828" stroke-miterlimit="10"/>
<path d="M19.847 104.842L15.7773 103.407" stroke="white" stroke-width="0.451828" stroke-miterlimit="10"/>
<path d="M43.588 105.448L51.1395 106.883" stroke="white" stroke-width="1.92924" stroke-miterlimit="10" stroke-linecap="round"/>
<path opacity="0.4" d="M43.588 117.281L51.1395 118.716" stroke="white" stroke-width="1.92924" stroke-miterlimit="10" stroke-linecap="round"/>
<path d="M43.588 111.485L54.4372 113.547" stroke="white" stroke-width="1.92924" stroke-miterlimit="10" stroke-linecap="round"/>
<g opacity="0.7">
<path opacity="0.7" d="M179.783 3.94077C173.239 8.74555 161.269 20.8617 135.143 24.8873C133.143 25.1954 132.394 26.6185 132.394 28.191V61.3163C132.405 61.7759 132.574 62.2176 132.873 62.5671C133.171 62.9165 133.582 63.1525 134.034 63.2349C140.624 64.3443 166.002 57.8705 181.179 44.8368C182.628 43.592 182.628 41.5037 182.628 41.0697V5.59342C182.628 4.12156 180.903 3.11844 179.783 3.94077Z" fill="url(#paint3_linear_2268_4782)"/>
</g>
<path d="M135.848 30.7902V51.2788C135.848 51.4572 135.888 51.6333 135.965 51.794C136.042 51.9548 136.154 52.0962 136.293 52.2079C136.432 52.3193 136.595 52.3982 136.769 52.4386C136.942 52.4788 137.123 52.4795 137.297 52.4407C141.029 51.6048 151.124 49.1882 157.499 46.1807C157.703 46.0843 157.875 45.9319 157.996 45.7414C158.115 45.5508 158.18 45.33 158.178 45.1046V25.1521C158.18 24.9526 158.13 24.7563 158.033 24.581C157.938 24.4059 157.8 24.2578 157.631 24.15C157.463 24.0423 157.272 23.9785 157.073 23.9645C156.873 23.9506 156.674 23.9869 156.492 24.0702C152.94 25.7064 144.403 29.2805 136.977 29.6021C136.672 29.6166 136.385 29.7483 136.174 29.9696C135.964 30.1908 135.847 30.4848 135.848 30.7902Z" fill="white"/>
<path d="M136.771 47.9809V50.1358C136.771 50.299 136.808 50.46 136.881 50.6062C136.953 50.7525 137.058 50.8801 137.188 50.9791C137.317 51.0781 137.468 51.1458 137.628 51.1769C137.789 51.2082 137.954 51.202 138.111 51.159L149.278 48.1061C149.455 48.0581 149.615 47.9654 149.745 47.837C149.875 47.7086 149.968 47.5492 150.018 47.3735C150.069 47.198 150.072 47.0127 150.03 46.8354C149.987 46.6579 149.899 46.4945 149.777 46.3609L143.789 39.9195C143.681 39.804 143.55 39.7137 143.403 39.6556C143.256 39.5974 143.098 39.5727 142.941 39.5833C142.783 39.5939 142.63 39.6395 142.493 39.7167C142.355 39.7941 142.236 39.9011 142.145 40.03L136.965 47.3691C136.838 47.5481 136.771 47.7617 136.771 47.9809Z" fill="#1444AF"/>
<path opacity="0.6" d="M148.156 42.9264L151.507 46.4823C151.615 46.5967 151.755 46.6764 151.907 46.7108C152.06 46.7454 152.22 46.7333 152.367 46.6762C153.357 46.2895 155.58 45.4153 156.706 44.9312C156.847 44.8701 156.967 44.7693 157.052 44.6407C157.136 44.5121 157.181 44.3616 157.181 44.2077V40.8758C157.181 40.7057 157.125 40.5403 157.024 40.4043L152.313 34.093C152.227 33.9797 152.114 33.8911 151.983 33.8367C151.853 33.7824 151.71 33.7642 151.57 33.7839C151.431 33.8038 151.299 33.8608 151.187 33.9491C151.077 34.0375 150.993 34.1538 150.943 34.2861L147.992 42.1075C147.94 42.2457 147.927 42.3957 147.957 42.5405C147.985 42.6852 148.055 42.8188 148.156 42.9264Z" fill="#1444AF"/>
<path d="M145.214 37.3741C146.208 37.3741 147.013 36.5688 147.013 35.5752C147.013 34.5815 146.208 33.7762 145.214 33.7762C144.22 33.7762 143.415 34.5815 143.415 35.5752C143.415 36.5688 144.22 37.3741 145.214 37.3741Z" fill="#FF9D29"/>
<path d="M163.366 23.4017C167.982 21.0605 172.426 18.3912 176.661 15.4147" stroke="white" stroke-width="1.92924" stroke-miterlimit="10" stroke-linecap="round"/>
<path d="M163.366 31.1731C163.366 31.1731 166.391 29.6985 170.543 27.1797" stroke="white" stroke-width="1.92924" stroke-miterlimit="10" stroke-linecap="round"/>
<path d="M163.366 38.7711C167.982 36.4297 172.426 33.7606 176.661 30.7841" stroke="white" stroke-width="1.92924" stroke-miterlimit="10" stroke-linecap="round"/>
<path d="M163.366 47.3016C167.982 44.9602 172.426 42.2912 176.661 39.3147" stroke="white" stroke-width="1.92924" stroke-miterlimit="10" stroke-linecap="round"/>
<path d="M138.414 58.3495C139.321 58.3495 140.057 57.6139 140.057 56.7064C140.057 55.7989 139.321 55.0632 138.414 55.0632C137.506 55.0632 136.771 55.7989 136.771 56.7064C136.771 57.6139 137.506 58.3495 138.414 58.3495Z" fill="white"/>
<path d="M147.942 55.691C148.848 55.691 149.585 54.9554 149.585 54.048C149.585 53.1405 148.848 52.4049 147.942 52.4049C147.034 52.4049 146.299 53.1405 146.299 54.048C146.299 54.9554 147.034 55.691 147.942 55.691Z" fill="white"/>
<path d="M156.535 52.7558C157.443 52.7558 158.178 52.0201 158.178 51.1126C158.178 50.2051 157.443 49.4695 156.535 49.4695C155.629 49.4695 154.892 50.2051 154.892 51.1126C154.892 52.0201 155.629 52.7558 156.535 52.7558Z" fill="white"/>
<defs>
<linearGradient id="paint0_linear_2268_4782" x1="77.1448" y1="-142.165" x2="144.137" y2="273.221" gradientUnits="userSpaceOnUse">
<stop stop-color="white"/>
<stop offset="1" stop-color="#94B9FF"/>
</linearGradient>
<linearGradient id="paint1_linear_2268_4782" x1="110.194" y1="87.1144" x2="114.774" y2="150.497" gradientUnits="userSpaceOnUse">
<stop stop-color="white"/>
<stop offset="1" stop-color="#94B9FF"/>
</linearGradient>
<linearGradient id="paint2_linear_2268_4782" x1="63.2211" y1="119.722" x2="69.1458" y2="185.043" gradientUnits="userSpaceOnUse">
<stop stop-color="white"/>
<stop offset="1" stop-color="#94B9FF"/>
</linearGradient>
<linearGradient id="paint3_linear_2268_4782" x1="151.453" y1="-70.7878" x2="189.109" y2="125.63" gradientUnits="userSpaceOnUse">
<stop stop-color="white"/>
<stop offset="1" stop-color="#94B9FF"/>
</linearGradient>
</defs>
</svg>
