<?xml version="1.0" encoding="iso-8859-1"?>
<!-- Uploaded to: SVG Repo, www.svgrepo.com, Transformed by: SVG Repo Mixer Tools -->
<svg version="1.1" id="Layer_1" xmlns="http://www.w3.org/2000/svg" xmlns:xlink="http://www.w3.org/1999/xlink" 
	 viewBox="0 0 474.88 474.88" xml:space="preserve">
<path style="fill:#73390E;" d="M373.556,458.88H354.42L244.66,247.2c-2.752-5.312-11.456-5.312-14.2,0L120.692,458.88h-19.136
	c-4.424,0-8,3.576-8,8s3.576,8,8,8h24c2.984,0,5.728-1.664,7.104-4.32l96.896-186.872V418.88h-8c-4.424,0-8,3.576-8,8s3.576,8,8,8
	h32c4.424,0,8-3.576,8-8s-3.576-8-8-8h-8V283.688l96.896,186.872c1.376,2.656,4.12,4.32,7.104,4.32h24c4.424,0,8-3.576,8-8
	S377.98,458.88,373.556,458.88z"/>
<polygon style="fill:#994C13;" points="261.556,250.88 213.556,250.88 221.556,207.032 253.556,207.032 "/>
<path style="fill:#E67F33;" d="M68.868,146.872l-34.64-20l72-124.704l34.64,20c7.656,4.416,10.272,14.2,5.856,21.856l-56,96.992
	C86.308,148.672,76.516,151.296,68.868,146.872z"/>
<path style="fill:#FCB641;" d="M215.428,213.016l-124.704-72l56-96.992l117.776,68c11.48,6.624,15.416,21.304,8.784,32.784
	l-36,62.352C232.868,214.816,223.084,217.44,215.428,213.016z"/>
<path style="fill:#FDC567;" d="M334.284,263.16l-96.992-56l40-69.28l96.992,56c7.656,4.416,10.272,14.2,5.856,21.856l-24,41.568
	C351.724,264.96,341.932,267.584,334.284,263.16z"/>
<path style="fill:#E67F33;" d="M396.812,280.792l-41.568-24l24-41.568l55.424,32l-16,27.712
	C414.252,282.584,404.468,285.208,396.812,280.792z"/>
<path id="SVGCleanerId_0" style="fill:#FEF0D9;" d="M38.228,119.944l-0.896-0.52C6.724,101.76-3.764,62.616,13.908,32.008l0,0
	C31.58,1.4,70.724-9.088,101.332,8.584l0.896,0.52L38.228,119.944z"/>
<g>
	<path id="SVGCleanerId_0_1_" style="fill:#FEF0D9;" d="M38.228,119.944l-0.896-0.52C6.724,101.76-3.764,62.616,13.908,32.008l0,0
		C31.58,1.4,70.724-9.088,101.332,8.584l0.896,0.52L38.228,119.944z"/>
</g>
<rect x="398.026" y="185.101" transform="matrix(-0.5 0.866 -0.866 -0.5 817.5919 -45.8286)" style="fill:#FCB641;" width="47.999" height="55.999"/>
<g>
	<path style="fill:#73390E;" d="M180.852,118.824c-1.36,0-2.736-0.344-3.992-1.072c-3.832-2.208-5.144-7.104-2.928-10.928l20-34.64
		c2.208-3.824,7.104-5.136,10.928-2.928c3.832,2.208,5.144,7.104,2.928,10.928l-20,34.64
		C186.308,117.384,183.62,118.824,180.852,118.824z"/>
	<path style="fill:#73390E;" d="M216.564,120.976c-1.36,0-2.736-0.344-3.992-1.072c-3.832-2.208-5.144-7.104-2.928-10.928l12-20.792
		c2.208-3.832,7.112-5.152,10.928-2.928c3.832,2.208,5.144,7.104,2.928,10.928l-12,20.792
		C222.02,119.536,219.332,120.976,216.564,120.976z"/>
</g>
<g>
	<path style="fill:#AD5F26;" d="M307.428,211.616L307.428,211.616c-11.48-6.624-26.16-2.696-32.784,8.784l-4,6.928l41.568,24
		l4-6.928C322.836,232.92,318.908,218.24,307.428,211.616z"/>
	<path style="fill:#AD5F26;" d="M153.556,139.168L153.556,139.168c-11.48-6.624-26.16-2.696-32.784,8.784l-4.008,6.928l41.568,24
		l4-6.928C168.964,160.472,165.028,145.792,153.556,139.168z"/>
</g>
<path style="fill:#73390E;" d="M323.412,191.896c-1.36,0-2.736-0.344-3.992-1.072c-3.832-2.208-5.144-7.104-2.928-10.928l8-13.848
	c2.208-3.832,7.112-5.144,10.928-2.928c3.832,2.208,5.144,7.104,2.928,10.928l-8,13.848
	C328.868,190.464,326.18,191.896,323.412,191.896z"/>
<g>
	<polygon style="fill:#E67F33;" points="458.276,206.328 409.78,178.328 418.852,146.616 469.556,186.88 	"/>
	<path style="fill:#E67F33;" d="M69.548,74.88c-1.52,0-3.064-0.44-4.432-1.344l-24-16c-3.68-2.456-4.672-7.416-2.216-11.096
		c2.448-3.68,7.4-4.664,11.096-2.216l24,16c3.68,2.456,4.672,7.416,2.216,11.096C74.676,73.632,72.132,74.88,69.548,74.88z"/>
</g>
<g>
	<path style="fill:#CE9F7D;" d="M93.556,306.88h-16v-16c0-4.424-3.576-8-8-8s-8,3.576-8,8v16h-16c-4.424,0-8,3.576-8,8s3.576,8,8,8
		h16v16c0,4.424,3.576,8,8,8s8-3.576,8-8v-16h16c4.424,0,8-3.576,8-8S97.98,306.88,93.556,306.88z"/>
	<path style="fill:#CE9F7D;" d="M381.556,34.88h-16v-16c0-4.424-3.576-8-8-8s-8,3.576-8,8v16h-16c-4.424,0-8,3.576-8,8s3.576,8,8,8
		h16v16c0,4.424,3.576,8,8,8s8-3.576,8-8v-16h16c4.424,0,8-3.576,8-8S385.98,34.88,381.556,34.88z"/>
</g>
</svg>