<?xml version="1.0" encoding="UTF-8"?>
<!DOCTYPE svg PUBLIC "-//W3C//DTD SVG 1.1//EN" "http://www.w3.org/Graphics/SVG/1.1/DTD/svg11.dtd">
<!-- Creator: CorelDRAW X7 -->
<svg xmlns="http://www.w3.org/2000/svg" xml:space="preserve" width="4000px" height="4000px" version="1.1" style="shape-rendering:geometricPrecision; text-rendering:geometricPrecision; image-rendering:optimizeQuality; fill-rule:evenodd; clip-rule:evenodd"
viewBox="0 0 4000 4000"
 xmlns:xlink="http://www.w3.org/1999/xlink">
 <defs>
  <style type="text/css">
   <![CDATA[
    .fil2 {fill:none}
    .fil0 {fill:#FFE100}
    .fil1 {fill:#FFE100;fill-rule:nonzero}
   ]]>
  </style>
 </defs>
 <g id="Layer_x0020_1">
  <metadata id="CorelCorpID_0Corel-Layer"/>
  <g id="_1344948173552">
   <path class="fil0" d="M1504 2144c2,0 4,0 6,0 83,2 151,-78 106,-175 -5,75 -38,115 -107,115 -2,0 -4,0 -5,0 -2,0 -3,0 -5,0 -70,0 -102,-40 -107,-115 -46,97 23,177 105,175 2,0 4,0 7,0zm0 -119c1,0 3,0 5,0 61,2 74,-60 59,-97 -10,37 -38,56 -64,50 -27,6 -55,-13 -65,-50 -15,37 -2,99 59,97 2,0 4,0 6,0zm0 -184c6,-1 13,-1 19,0 192,8 437,74 538,35 69,-27 181,-111 233,-37 16,22 -47,78 -49,12 -25,-53 -81,26 -41,68 -145,145 -542,-20 -580,-31 -11,-3 -17,9 -8,24 14,25 56,61 66,99 21,77 -40,199 -163,203 -5,0 -10,0 -15,0 -5,0 -10,0 -15,0 -123,-4 -185,-126 -164,-203 10,-38 53,-74 66,-99 9,-15 3,-27 -8,-24 -38,11 -434,176 -580,31 40,-42 -15,-121 -41,-68 -1,66 -65,10 -49,-12 52,-74 164,10 234,37 101,39 345,-27 538,-35 6,-1 12,-1 19,0zm0 -228c-11,-2 -23,3 -24,13 -13,105 -2,90 -38,133 -51,63 -101,57 -182,62 -76,4 -137,9 -150,-24 -6,-17 36,-147 154,-171 42,-8 120,13 120,-12 -1,-43 -117,-30 -153,-21 -128,33 -236,85 -336,230 189,97 391,1 604,-10 1,1 3,1 5,1 1,0 3,0 5,-1 213,11 415,107 603,10 -100,-145 -207,-197 -335,-230 -37,-9 -153,-22 -153,21 0,25 77,4 119,12 118,24 161,154 154,171 -13,33 -74,28 -150,24 -80,-5 -131,1 -182,-62 -36,-43 -25,-28 -37,-133 -1,-10 -14,-15 -24,-13zm0 -625c-6,-3 -11,-15 -11,-33 -2,-85 -24,-176 -16,-276 4,-35 15,-55 27,-60 12,5 23,25 26,60 9,100 -14,191 -15,276 -1,18 -6,30 -11,33zm0 -888c-128,96 -331,117 -328,365 -2,99 44,154 215,152 51,0 52,175 50,253 -32,-55 -62,-92 -120,-136 -132,-115 -195,-140 -195,-281 0,-107 27,-141 83,-213 -197,32 -482,201 -273,406 93,90 241,17 343,102 58,42 167,169 167,256l3 52 -9 230c-1,13 -18,11 -18,-2 0,-248 -132,-424 -364,-424 -86,0 -135,17 -225,14 -85,1 -186,-67 -189,-139 -95,91 -81,313 94,295 112,-24 124,-132 285,-132 102,-1 184,1 264,85 35,36 65,71 84,197 2,29 -10,28 -17,12 -60,-136 -122,-169 -232,-173 -177,-1 -330,259 -459,259 -59,0 -93,-23 -127,-69 3,108 18,208 135,209 71,1 129,-87 168,-150 66,-110 194,-238 334,-209 123,33 194,162 194,352 0,39 -15,106 -61,106 -44,0 -60,-11 -60,-54 0,-79 28,-265 -62,-265 -49,-2 -70,26 -72,64 0,41 82,76 67,12 -4,-20 28,-28 30,2 -2,64 -59,57 -53,196 0,108 85,86 197,86 91,11 59,109 -5,109 -32,2 -42,-18 -63,-20 -18,-3 -35,2 -39,15 -10,53 66,67 126,67 43,3 -17,37 -46,38 -21,0 -20,21 -1,21 104,-2 111,-74 132,-171 2,-25 18,-36 47,-37 29,1 45,12 46,37 21,97 28,169 133,171 18,0 19,-21 -1,-21 -30,-1 -89,-35 -46,-38 60,0 136,-14 126,-67 -4,-13 -22,-18 -39,-15 -21,2 -31,22 -63,20 -64,0 -97,-98 -5,-109 111,0 196,22 196,-86 6,-139 -51,-132 -52,-196 1,-30 34,-22 29,-2 -15,64 67,29 67,-12 -1,-38 -23,-66 -72,-64 -89,0 -62,186 -62,265 0,43 -16,54 -60,54 -45,0 -61,-67 -61,-106 0,-190 71,-319 194,-352 140,-29 268,99 335,209 38,63 96,151 168,150 116,-1 131,-101 134,-209 -34,46 -68,69 -127,69 -129,0 -281,-260 -459,-259 -110,4 -172,37 -232,173 -7,16 -19,17 -17,-12 20,-126 50,-161 85,-197 80,-84 162,-86 263,-85 161,0 174,108 286,132 174,18 188,-204 94,-295 -4,72 -104,140 -189,139 -91,3 -140,-14 -225,-14 -232,0 -365,176 -365,424 0,13 -17,15 -18,2l-9 -230 3 -52c0,-87 110,-214 168,-256 101,-85 250,-12 342,-102 209,-205 -75,-374 -273,-406 57,72 83,106 83,213 0,141 -63,166 -195,281 -57,44 -88,81 -120,136 -1,-78 -1,-253 50,-253 172,2 217,-53 215,-152 4,-248 -199,-269 -327,-365zm-77 156c-46,13 -70,88 -67,166 0,41 35,96 60,113 -17,-45 -42,-153 7,-279zm51 1055c0,-24 -25,-28 -26,9 3,111 -48,107 -51,150 0,32 7,55 48,50 36,0 29,-68 29,-100l0 -109zm-433 -573c-30,49 -125,92 -185,92 -222,0 -213,-240 -42,-353 -5,163 78,261 227,261zm-239 320c-27,106 -71,172 -162,172 -120,-11 -114,-186 -88,-253 60,109 159,116 250,81zm499 381c23,-2 31,21 23,37 -9,17 -32,15 -41,-1 -8,-12 -3,-35 18,-36zm-596 134c-50,0 -112,-80 -119,-129 31,13 70,28 108,22 43,-9 45,-13 68,-44 41,64 31,151 -57,151zm88 109c-66,20 -115,-62 -128,-86 44,27 128,26 145,-22 16,45 26,87 -17,108zm23 84c-28,-5 -45,-18 -50,-39 34,6 70,-4 84,-33 18,31 13,80 -34,72zm321 -90c-30,28 -59,83 -82,117 -15,23 -39,15 -32,2 18,-40 72,-107 114,-119zm-24 -19c-29,29 -64,64 -72,73 -47,56 -70,89 -84,56 -2,-7 24,-46 62,-74 31,-22 57,-44 94,-55zm204 518c-45,24 -158,-3 -175,-58 66,-33 99,-58 148,-97 -2,74 6,97 27,155zm-361 -153c33,-5 110,0 158,-15 79,-26 123,-32 196,-63 -28,53 -109,101 -135,119 -69,59 -206,54 -219,-41zm620 -1766c47,13 71,88 67,166 0,41 -35,96 -59,113 16,-45 41,-153 -8,-279zm-51 1055c0,-24 25,-28 26,9 -3,111 48,107 51,150 0,32 -6,55 -47,50 -36,0 -30,-68 -30,-100l0 -109zm434 -573c30,49 124,92 185,92 221,0 212,-240 42,-353 4,163 -78,261 -227,261zm239 320c27,106 71,172 161,172 121,-11 115,-186 89,-253 -61,109 -160,116 -250,81zm-500 381c-22,-2 -30,21 -22,37 8,17 31,15 41,-1 7,-12 3,-35 -19,-36zm596 134c50,0 112,-80 119,-129 -31,13 -69,28 -107,22 -44,-9 -46,-13 -69,-44 -40,64 -31,151 57,151zm-87 109c66,20 115,-62 127,-86 -43,27 -127,26 -144,-22 -17,45 -26,87 17,108zm-24 84c28,-5 45,-18 51,-39 -35,6 -71,-4 -84,-33 -18,31 -14,80 33,72zm-321 -90c30,28 59,83 82,117 15,23 39,15 33,2 -19,-40 -73,-107 -115,-119zm24 -19c29,29 65,64 72,73 47,56 71,89 84,56 3,-7 -23,-46 -62,-74 -30,-22 -56,-44 -94,-55zm-203 518c44,24 157,-3 174,-58 -66,-33 -98,-58 -148,-97 2,74 -5,97 -26,155zm361 -153c-34,-5 -110,0 -159,-15 -79,-26 -122,-32 -196,-63 28,53 109,101 136,119 68,59 205,54 219,-41z"/>
   <path class="fil1" d="M515 2476c0,42 11,64 25,78 21,19 48,20 63,20 18,0 38,-4 58,-21 24,-21 27,-56 27,-88l0 -32c0,-44 0,-52 0,-62 1,-10 3,-15 11,-16 3,-1 5,-1 8,-1 3,0 5,-1 5,-3 0,-2 -2,-2 -6,-2 -11,0 -29,0 -32,0 0,0 -18,0 -32,0 -4,0 -6,0 -6,2 0,2 1,3 5,3 3,0 7,0 10,1 9,2 11,6 12,16 0,10 0,18 0,62l0 37c0,30 -1,56 -16,72 -11,12 -26,16 -39,16 -9,0 -22,-1 -35,-12 -14,-11 -22,-29 -22,-72l0 -41c0,-44 0,-52 1,-62 0,-10 3,-15 10,-16 3,-1 5,-1 8,-1 3,0 5,-1 5,-3 0,-2 -2,-2 -6,-2 -11,0 -28,0 -35,0 -8,0 -26,0 -41,0 -4,0 -6,0 -6,2 0,2 1,3 5,3 3,0 8,0 11,1 9,2 11,6 12,16 0,10 0,18 0,62l0 43zm1500 424c14,0 30,-3 44,-12 20,-14 27,-34 27,-51 0,-28 -12,-48 -46,-74l-8 -7c-24,-18 -30,-28 -30,-42 0,-17 13,-30 33,-30 19,0 27,9 31,15 6,7 7,16 7,19 0,3 1,5 3,5 2,0 3,-2 3,-9 0,-22 1,-31 1,-35 0,-2 -1,-3 -4,-3 -7,-2 -19,-5 -37,-5 -39,0 -65,23 -65,55 0,24 11,44 42,69l13 11c23,19 27,32 27,47 0,15 -12,33 -38,33 -17,0 -34,-8 -40,-30 -1,-5 -2,-11 -2,-15 0,-2 -1,-4 -3,-4 -2,0 -3,3 -3,7 -1,5 -2,22 -2,38 0,7 1,8 6,10 12,6 24,8 41,8zm138 -89c0,28 0,52 -2,64 -1,8 -2,13 -8,14 -3,1 -6,2 -10,2 -3,0 -5,0 -5,2 0,2 2,3 6,3 11,0 29,-1 35,-1 8,0 26,1 44,1 3,0 6,-1 6,-3 0,-2 -2,-2 -5,-2 -4,0 -10,-1 -14,-2 -9,-1 -11,-6 -11,-14 -2,-12 -2,-36 -2,-64l0 -51c0,-45 0,-53 1,-62 1,-11 3,-16 10,-17 4,-1 6,-1 9,-1 3,0 4,0 4,-3 0,-2 -2,-2 -6,-2 -10,0 -27,1 -34,1 -8,0 -26,-1 -36,-1 -5,0 -7,0 -7,2 0,3 2,3 4,3 4,0 7,0 10,1 7,2 9,7 10,17 1,9 1,17 1,62l0 51zm201 9c1,0 2,0 2,2l23 62c1,3 -1,6 -3,6 -2,1 -4,1 -4,3 0,2 4,2 9,2 22,1 43,1 53,1 10,0 13,-1 13,-3 0,-2 -2,-2 -4,-2 -3,0 -7,-1 -12,-2 -5,-1 -14,-5 -24,-32 -18,-44 -63,-163 -70,-179 -3,-7 -5,-10 -7,-10 -3,0 -5,4 -8,12l-70 184c-6,14 -11,24 -24,26 -3,0 -7,1 -9,1 -2,0 -4,0 -4,2 0,2 2,3 6,3 14,0 30,-1 33,-1 9,0 21,1 30,1 3,0 5,-1 5,-3 0,-2 -1,-2 -5,-2l-4 0c-9,0 -11,-4 -11,-9 0,-4 1,-11 4,-18l15 -42c1,-2 1,-2 3,-2l63 0zm-57 -15c-2,0 -2,-1 -2,-2l26 -72c1,-1 1,-3 2,-3 1,0 1,2 1,3l26 72c0,1 0,2 -2,2l-51 0zm-1518 -398l1 0c5,6 36,42 67,74 29,30 65,68 83,86 3,3 7,6 10,6 2,0 3,-3 3,-9l3 -184c1,-17 3,-23 11,-25 3,-1 5,-1 8,-1 4,0 5,-1 5,-3 0,-2 -3,-2 -6,-2 -14,0 -25,0 -28,0 -6,0 -19,0 -34,0 -4,0 -7,0 -7,2 0,2 1,3 4,3 4,0 11,0 15,2 7,3 10,8 10,26l3 131 -2 0c-5,-5 -42,-47 -62,-66 -41,-43 -83,-90 -87,-94 -4,-6 -7,-9 -10,-9 -3,0 -4,4 -4,10l-2 173c-1,25 -2,34 -9,36 -4,1 -9,1 -13,1 -2,0 -4,1 -4,3 0,2 2,3 6,3 15,0 28,-1 30,-1 6,0 17,1 35,1 4,0 7,-1 7,-3 0,-2 -2,-3 -5,-3 -5,0 -10,0 -15,-2 -5,-2 -9,-9 -10,-32l-3 -123zm254 78c0,28 0,51 -1,64 -1,8 -3,13 -9,14 -2,1 -6,1 -10,1 -3,0 -4,1 -4,3 0,2 2,3 5,3 12,0 29,-1 36,-1 7,0 25,1 44,1 3,0 5,-1 5,-3 0,-2 -1,-3 -4,-3 -5,0 -11,0 -15,-1 -8,-1 -10,-6 -11,-14 -1,-13 -1,-36 -1,-64l0 -52c0,-44 0,-52 0,-62 1,-10 3,-15 11,-16 3,-1 5,-1 8,-1 3,0 5,-1 5,-3 0,-2 -3,-2 -6,-2 -11,0 -27,0 -35,0 -8,0 -25,0 -36,0 -5,0 -7,0 -7,2 0,2 2,3 5,3 3,0 7,0 10,1 6,2 9,6 9,16 1,10 1,18 1,62l0 52zm172 71c5,14 7,18 11,18 4,0 5,-5 13,-22 6,-15 19,-46 37,-89 15,-36 23,-52 34,-79 7,-19 12,-24 15,-27 5,-3 11,-3 14,-3 3,0 4,-1 4,-3 0,-2 -2,-2 -5,-2 -9,0 -22,0 -27,0 -4,0 -15,0 -29,0 -6,0 -8,0 -8,3 0,2 2,2 5,2 3,0 7,0 11,1 2,1 3,4 3,6 0,3 -1,7 -2,11 -7,19 -43,113 -56,145l-1 0 -48 -132c-4,-11 -6,-19 -6,-23 0,-3 0,-5 2,-6 3,-2 7,-2 11,-2 3,0 5,-1 5,-3 0,-2 -4,-2 -7,-2 -14,0 -27,0 -34,0 -10,0 -26,0 -41,0 -5,0 -8,0 -8,2 0,2 1,3 4,3 2,0 7,0 11,1 10,3 15,6 21,22l71 179zm159 -71c0,27 0,50 -2,62 -1,9 -2,15 -8,16 -3,1 -6,1 -10,1 -4,0 -5,1 -5,3 0,2 2,3 6,3 6,0 13,-1 19,-1 7,0 13,0 16,0 9,0 18,0 30,1 12,0 27,0 48,0 11,0 13,0 15,-7 2,-6 4,-26 4,-33 0,-2 0,-5 -2,-5 -2,0 -3,1 -3,5 -2,12 -6,18 -13,21 -7,4 -19,4 -26,4 -29,0 -33,-5 -34,-25 0,-8 0,-35 0,-45l0 -23c0,-2 0,-3 2,-3 6,0 34,0 40,1 10,1 14,5 15,11 1,4 1,8 1,11 0,1 1,2 3,2 2,0 2,-3 2,-5 0,-2 1,-14 2,-20 1,-15 2,-19 2,-21 0,-2 -1,-3 -2,-3 -2,0 -3,2 -5,4 -2,3 -6,4 -13,5 -7,0 -39,0 -45,0 -2,0 -2,-1 -2,-3l0 -74c0,-2 1,-3 2,-3 6,0 35,1 40,1 14,2 17,6 19,11 1,3 1,8 1,10 0,3 1,4 3,4 2,0 2,-1 3,-3 0,-3 1,-16 1,-19 1,-14 2,-17 2,-19 0,-2 0,-3 -1,-3 -2,0 -3,1 -5,1 -2,1 -7,2 -12,2 -5,0 -61,0 -70,0 -4,0 -11,0 -18,0 -7,0 -15,0 -23,0 -4,0 -6,0 -6,2 0,2 2,3 5,3 4,0 9,0 11,1 9,2 11,6 12,16 1,10 1,18 1,62l0 52zm177 0c0,27 0,50 -1,62 -1,9 -3,15 -8,16 -3,1 -6,1 -11,1 -3,0 -4,1 -4,3 0,2 2,3 6,3 11,0 29,-1 34,-1 4,0 25,1 41,1 4,0 6,-1 6,-3 0,-2 -1,-3 -4,-3 -3,0 -9,0 -13,-1 -9,-1 -10,-7 -11,-16 -2,-12 -2,-35 -2,-62l0 -5c0,-1 1,-2 3,-2l24 1c2,0 4,0 5,2 4,4 17,24 28,40 16,23 26,36 38,43 8,4 15,6 31,6l26 0c4,0 6,-1 6,-3 0,-2 -2,-3 -4,-3 -2,0 -5,0 -8,-1 -4,0 -15,-2 -31,-19 -17,-19 -36,-45 -61,-77 28,-24 37,-44 37,-66 0,-19 -11,-34 -19,-40 -15,-11 -34,-12 -52,-12 -9,0 -30,0 -40,0 -5,0 -23,0 -38,0 -4,0 -6,0 -6,2 0,2 1,3 5,3 3,0 8,0 11,1 9,2 11,6 12,16 0,10 0,18 0,62l0 52zm33 -117c0,-3 1,-4 3,-4 3,-1 8,-2 15,-2 16,0 43,12 43,54 0,24 -8,37 -17,44 -5,3 -9,5 -20,5 -7,0 -15,-1 -21,-3 -2,-1 -3,-2 -3,-6l0 -88zm201 206c15,0 30,-3 44,-12 21,-14 27,-34 27,-51 0,-28 -12,-48 -46,-75l-8 -6c-23,-18 -30,-28 -30,-42 0,-17 13,-30 34,-30 18,0 26,9 30,14 6,8 8,17 8,20 0,3 0,5 2,5 3,0 3,-2 3,-9 0,-23 2,-31 2,-35 0,-2 -2,-3 -4,-4 -8,-2 -20,-4 -38,-4 -39,0 -65,23 -65,55 0,23 11,44 42,69l13 11c23,19 27,32 27,46 0,16 -12,34 -37,34 -18,0 -34,-8 -40,-30 -2,-5 -3,-11 -3,-15 0,-2 0,-5 -3,-5 -2,0 -3,3 -3,8 0,5 -2,22 -2,38 0,7 1,8 6,10 12,6 24,8 41,8zm138 -89c0,28 0,51 -2,64 0,8 -2,13 -8,14 -2,1 -6,1 -10,1 -3,0 -4,1 -4,3 0,2 2,3 5,3 11,0 29,-1 36,-1 7,0 25,1 44,1 3,0 5,-1 5,-3 0,-2 -2,-3 -5,-3 -4,0 -10,0 -14,-1 -8,-1 -10,-6 -11,-14 -1,-13 -1,-36 -1,-64l0 -52c0,-44 0,-52 0,-62 1,-10 3,-15 11,-16 3,-1 5,-1 8,-1 3,0 5,-1 5,-3 0,-2 -3,-2 -6,-2 -11,0 -28,0 -35,0 -8,0 -26,0 -36,0 -5,0 -7,0 -7,2 0,2 2,3 5,3 3,0 7,0 10,1 6,2 9,6 9,16 1,10 1,18 1,62l0 52zm164 0c0,27 0,50 -1,62 -1,9 -3,15 -8,16 -3,1 -6,1 -10,1 -4,0 -5,1 -5,3 0,2 2,3 6,3 11,0 29,-1 35,-1 8,0 26,1 44,1 3,0 6,-1 6,-3 0,-2 -2,-3 -5,-3 -4,0 -10,0 -14,-1 -9,-1 -10,-7 -11,-16 -2,-12 -2,-35 -2,-62l0 -120 36 1c25,0 32,9 33,16l0 3c1,5 1,6 3,6 2,0 3,-1 3,-4 0,-8 1,-28 1,-34 0,-5 -1,-6 -3,-6 -1,0 -3,0 -7,1 -4,1 -11,1 -20,1l-111 0c-9,0 -20,0 -28,-1 -7,-1 -10,-3 -12,-3 -2,0 -3,1 -3,5 -1,2 -6,29 -6,34 0,3 0,4 2,4 2,0 3,-1 3,-3 1,-2 2,-6 5,-10 4,-7 11,-8 27,-9l42 -1 0 120zm220 8c1,0 2,1 2,2l23 62c1,4 -1,6 -3,7 -3,0 -4,1 -4,3 0,2 4,2 9,2 22,1 43,1 53,1 10,0 13,-1 13,-3 0,-2 -2,-3 -4,-3 -3,0 -7,0 -12,-1 -6,-2 -14,-6 -24,-32 -18,-44 -63,-163 -70,-179 -3,-7 -5,-10 -7,-10 -3,0 -5,3 -8,12l-71 183c-5,15 -11,25 -23,27 -3,0 -7,0 -9,0 -2,0 -4,1 -4,3 0,2 2,3 6,3 14,0 30,-1 33,-1 9,0 21,1 30,1 3,0 5,-1 5,-3 0,-2 -1,-3 -5,-3l-4 0c-9,0 -11,-3 -11,-9 0,-3 1,-10 4,-18l15 -41c1,-2 1,-3 3,-3l63 0zm-58 -14c-1,0 -1,-1 -1,-2l26 -72c0,-1 1,-3 2,-3 1,0 1,2 1,3l26 72c0,1 0,2 -2,2l-52 0zm203 95c15,0 31,-3 45,-12 20,-14 26,-34 26,-51 0,-28 -12,-48 -46,-75l-8 -6c-23,-18 -30,-28 -30,-42 0,-17 13,-30 34,-30 18,0 26,9 31,14 5,8 7,17 7,20 0,3 1,5 3,5 2,0 3,-2 3,-9 0,-23 1,-31 1,-35 0,-2 -2,-3 -4,-4 -7,-2 -19,-4 -37,-4 -40,0 -65,23 -65,55 0,23 10,44 41,69l13 11c24,19 28,32 28,46 0,16 -13,34 -38,34 -17,0 -34,-8 -40,-30 -2,-5 -3,-11 -3,-15 0,-2 0,-5 -3,-5 -2,0 -3,3 -3,8 0,5 -1,22 -1,38 0,7 1,8 5,10 12,6 25,8 41,8zm-1811 237c0,28 0,52 -1,64 -1,8 -3,13 -9,14 -2,1 -6,2 -10,2 -3,0 -4,0 -4,2 0,2 2,3 5,3 12,0 29,-1 36,-1 7,0 25,1 44,1 3,0 5,-1 5,-3 0,-2 -1,-2 -4,-2 -5,0 -11,-1 -15,-2 -8,-1 -10,-6 -11,-14 -1,-12 -1,-36 -1,-64l0 -51c0,-45 0,-53 0,-62 1,-11 3,-16 11,-17 3,-1 5,-1 8,-1 3,0 5,0 5,-3 0,-2 -3,-2 -6,-2 -11,0 -27,1 -34,1 -9,0 -26,-1 -37,-1 -5,0 -7,0 -7,2 0,3 2,3 5,3 3,0 7,0 10,1 6,2 9,7 9,17 1,9 1,17 1,62l0 51zm140 -78l1 0c5,6 36,42 66,74 30,30 66,68 83,86 3,3 7,6 10,6 2,0 4,-2 4,-9l3 -184c0,-17 2,-23 10,-25 3,-1 6,-1 8,-1 4,0 6,-1 6,-2 0,-3 -3,-3 -7,-3 -14,0 -24,1 -27,1 -6,0 -20,-1 -34,-1 -5,0 -8,0 -8,3 0,1 1,2 5,2 4,0 10,0 15,2 6,3 9,8 9,26l3 131 -1 0c-5,-4 -43,-46 -62,-66 -41,-43 -84,-90 -87,-94 -5,-5 -8,-9 -11,-9 -3,0 -3,4 -3,10l-3 173c0,25 -1,34 -9,36 -4,1 -9,2 -12,2 -3,0 -5,0 -5,2 0,3 3,3 6,3 15,0 28,-1 31,-1 5,0 16,1 35,1 3,0 6,-1 6,-3 0,-2 -2,-2 -5,-2 -4,0 -10,-1 -14,-2 -6,-3 -10,-10 -10,-33l-3 -123zm253 78c0,27 0,50 -1,62 -1,9 -3,15 -8,16 -3,1 -6,2 -10,2 -4,0 -5,0 -5,2 0,2 2,3 6,3 5,0 13,-1 19,-1 7,0 13,0 16,0 7,0 17,1 28,2 10,1 22,2 32,2 52,0 81,-21 94,-35 16,-17 31,-45 31,-82 0,-34 -13,-59 -27,-74 -31,-33 -78,-33 -113,-33 -17,0 -35,1 -43,1 -8,0 -26,-1 -41,-1 -4,0 -6,0 -6,3 0,2 2,2 5,2 4,0 8,0 11,1 9,2 11,7 12,17 0,9 0,17 0,62l0 51zm35 -56c0,-23 0,-49 1,-58 0,-4 0,-5 3,-6 2,-2 13,-2 18,-2 22,0 54,3 80,29 12,12 27,36 27,73 0,30 -6,57 -23,73 -17,15 -36,21 -65,21 -22,0 -33,-6 -37,-12 -2,-3 -3,-15 -3,-22 0,-6 -1,-28 -1,-59l0 -37zm311 145c71,0 116,-53 116,-120 0,-67 -43,-109 -113,-109 -85,0 -116,64 -116,114 0,52 32,115 113,115zm12 -15c-54,0 -87,-48 -87,-109 0,-72 37,-91 70,-91 46,0 82,40 82,106 0,84 -46,94 -65,94zm176 -152l1 0c5,6 36,42 66,74 30,30 66,68 83,86 4,3 7,6 10,6 3,0 4,-2 4,-9l3 -184c0,-17 2,-23 10,-25 4,-1 6,-1 9,-1 3,0 5,-1 5,-2 0,-3 -3,-3 -7,-3 -14,0 -24,1 -27,1 -6,0 -20,-1 -34,-1 -5,0 -8,0 -8,3 0,1 1,2 5,2 4,0 10,0 15,2 6,3 9,8 9,26l3 131 -1 0c-5,-4 -43,-46 -62,-66 -41,-43 -84,-90 -87,-94 -5,-5 -8,-9 -11,-9 -3,0 -3,4 -3,10l-3 173c0,25 -1,34 -9,36 -4,1 -9,2 -12,2 -3,0 -5,0 -5,2 0,3 3,3 6,3 15,0 28,-1 31,-1 5,0 16,1 35,1 4,0 6,-1 6,-3 0,-2 -2,-2 -5,-2 -4,0 -10,-1 -14,-2 -6,-3 -10,-10 -10,-33l-3 -123zm253 78c0,27 0,50 -1,62 -1,9 -3,15 -8,16 -3,1 -6,2 -10,2 -4,0 -5,0 -5,2 0,2 2,3 6,3 5,0 13,-1 19,-1 7,0 13,0 16,0 9,0 17,0 29,1 13,0 28,1 49,1 11,0 13,0 15,-8 2,-6 4,-26 4,-32 0,-3 0,-6 -2,-6 -2,0 -3,2 -3,5 -2,12 -6,18 -13,21 -7,4 -19,4 -27,4 -28,0 -33,-4 -33,-25 -1,-8 0,-35 0,-45l0 -23c0,-2 0,-3 1,-3 7,0 35,0 40,1 11,1 15,5 16,11 1,4 1,8 1,11 0,1 1,2 3,2 2,0 2,-3 2,-5 0,-2 1,-14 1,-20 1,-15 3,-19 3,-21 0,-2 -1,-2 -2,-2 -2,0 -3,1 -5,3 -2,3 -7,4 -13,5 -7,0 -39,0 -45,0 -2,0 -2,-1 -2,-3l0 -74c0,-2 0,-3 2,-3 5,0 35,1 40,2 14,1 16,5 18,10 2,4 2,9 2,11 0,2 1,4 3,4 2,0 2,-2 2,-4 1,-3 2,-16 2,-19 1,-13 2,-17 2,-19 0,-1 0,-2 -2,-2 -1,0 -3,0 -4,1 -2,0 -7,1 -12,1 -5,1 -61,1 -70,1 -4,0 -11,-1 -18,-1 -7,0 -15,0 -23,0 -4,0 -6,0 -6,3 0,2 2,2 5,2 4,0 8,0 11,1 9,2 11,7 12,17 0,9 0,17 0,62l0 51z"/>
  </g>
  <rect class="fil2" width="4000" height="4000"/>
 </g>
</svg>
