<svg width="750" height="212" viewBox="0 0 750 212" fill="none" xmlns="http://www.w3.org/2000/svg">
<path d="M297.1 42.8157C317.303 42.8157 332.752 46.3809 343.448 53.6301C354.144 60.7605 359.491 71.9315 359.491 87.0242C359.491 96.4126 357.352 104.137 352.955 109.96C349.033 115.189 343.686 119.468 336.793 122.676C335.605 123.27 335.129 124.815 335.961 125.885C338.1 128.737 340.477 131.827 342.735 135.273C345.706 139.552 348.677 144.186 351.529 148.821C354.381 153.575 357.233 158.447 359.967 163.557C362.106 167.598 364.126 171.52 366.028 175.441C366.741 176.867 365.671 178.531 364.126 178.531H335.129C334.297 178.531 333.584 178.175 333.228 177.462C330.97 173.421 328.712 169.38 326.335 165.221C323.839 160.705 321.225 156.308 318.61 152.03C315.996 147.752 313.263 143.711 310.767 139.908C308.39 136.462 306.013 133.253 303.637 130.282C303.28 129.807 302.567 129.45 301.973 129.45H290.208C289.019 129.45 288.068 130.401 288.068 131.589V176.273C288.068 177.462 287.118 178.412 285.929 178.412H260.022C258.834 178.412 257.883 177.462 257.883 176.273V48.0447C257.883 46.9751 258.596 46.1432 259.666 45.9055C265.727 44.836 271.906 44.0041 278.324 43.5287C285.216 43.0534 291.515 42.8157 297.1 42.8157ZM298.883 68.604C296.744 68.604 294.723 68.7228 292.941 68.8417C291.871 68.9605 290.921 68.9605 289.97 69.0793C288.9 69.1982 287.95 70.1489 287.95 71.2185V103.543C287.95 104.731 288.9 105.682 290.089 105.682H296.506C307.915 105.682 315.996 104.256 320.987 101.404C325.86 98.5517 328.355 93.6793 328.355 86.9054C328.355 80.3692 325.86 75.6156 320.868 72.8822C315.877 69.9112 308.509 68.604 298.883 68.604Z" fill="#1444AF"/>
<path d="M366.503 128.5C366.503 119.468 367.929 111.505 370.662 104.732C373.396 97.9577 377.08 92.2533 381.596 87.7374C386.111 83.2215 391.341 79.7751 397.164 77.5172C402.987 75.1404 409.048 74.0708 415.346 74.0708C429.845 74.0708 441.253 78.4679 449.691 87.3809C458.129 96.175 462.288 109.247 462.288 126.479C462.288 128.143 462.169 130.044 462.05 131.946C461.932 133.134 461.931 134.204 461.813 135.273C461.694 136.343 460.743 137.294 459.674 137.294H398.709C397.282 137.294 396.332 138.601 396.569 139.908C397.639 144.662 400.253 148.465 404.413 151.436C409.285 154.882 415.94 156.665 424.14 156.665C429.488 156.665 434.598 156.189 439.708 155.239C443.63 154.526 446.958 153.575 449.81 152.624C451.117 152.149 452.424 152.981 452.662 154.288L455.871 173.421C455.989 174.372 455.514 175.323 454.563 175.798C453.256 176.392 451.711 176.867 449.929 177.462C447.314 178.294 444.462 178.888 441.253 179.482C438.045 180.076 434.717 180.552 431.033 180.908C427.468 181.265 423.784 181.502 420.219 181.502C411.068 181.502 403.106 180.195 396.332 177.462C389.558 174.728 383.972 171.044 379.456 166.291C374.941 161.537 371.732 155.952 369.593 149.534C367.572 142.879 366.503 135.987 366.503 128.5ZM431.984 117.447C433.291 117.447 434.361 116.259 434.123 114.952C433.885 113.407 433.529 111.743 433.053 110.198C432.34 107.821 431.271 105.801 429.726 104.018C428.181 102.236 426.398 100.691 424.14 99.5026C421.882 98.3142 419.03 97.72 415.703 97.72C412.494 97.72 409.642 98.3142 407.384 99.3838C405.007 100.453 403.106 101.879 401.561 103.781C400.016 105.563 398.827 107.703 397.996 110.079C397.401 111.624 397.045 113.169 396.688 114.714C396.332 116.021 397.401 117.329 398.827 117.329H431.984V117.447Z" fill="#1444AF"/>
<path d="M512.32 73.9519C520.876 73.9519 528.007 74.9026 533.592 76.8041C539.297 78.7055 543.813 81.5577 547.259 85.1229C550.705 88.6881 553.082 93.0852 554.508 98.3141C555.934 103.543 556.647 109.247 556.647 115.546V173.896C556.647 174.966 555.934 175.798 554.984 176.036C551.062 176.867 545.833 177.818 539.416 178.888C532.047 180.076 523.134 180.67 512.676 180.67C506.14 180.67 500.079 180.076 494.732 178.888C489.384 177.699 484.749 175.798 480.827 173.183C476.906 170.569 473.935 167.123 471.914 162.844C469.894 158.566 468.824 153.337 468.824 147.157C468.824 141.215 470.013 136.224 472.39 132.065C474.766 127.905 477.975 124.578 482.016 122.201C486.056 119.705 490.572 117.923 495.801 116.853C500.911 115.784 506.378 115.189 511.845 115.189C515.647 115.189 518.975 115.308 521.827 115.665C523.491 115.902 525.036 116.021 526.343 116.378C527.65 116.616 528.958 115.665 528.958 114.239C528.958 109.366 527.413 105.445 524.442 102.355C521.471 99.3837 516.242 97.8387 508.992 97.8387C504.12 97.8387 499.248 98.1953 494.494 98.9083C490.691 99.5025 487.363 100.216 484.392 101.166C483.085 101.523 481.778 100.691 481.659 99.5025L478.688 80.607C478.569 79.5374 479.164 78.4678 480.233 78.2302C481.54 77.8736 482.966 77.5171 484.749 77.1606C487.245 76.5664 489.978 76.091 492.949 75.6157C495.92 75.1403 499.01 74.7838 502.337 74.4273C505.546 74.1896 508.874 73.9519 512.32 73.9519ZM514.578 158.447C517.43 158.447 520.163 158.328 522.778 158.21C524.442 158.091 525.868 157.972 527.056 157.853C528.126 157.734 528.958 156.783 528.958 155.714V137.531C528.958 136.462 528.244 135.511 527.175 135.392C526.224 135.273 525.036 135.155 523.729 134.917C521.352 134.679 519.213 134.56 517.311 134.56C514.578 134.56 512.082 134.679 509.705 135.036C507.329 135.392 505.19 135.986 503.407 136.818C501.624 137.769 500.198 138.957 499.129 140.502C498.059 142.047 497.584 143.949 497.584 146.326C497.584 150.841 499.129 153.931 502.1 155.714C505.19 157.615 509.349 158.447 514.578 158.447Z" fill="#1444AF"/>
<path d="M569.125 127.668C569.125 120.3 570.314 113.407 572.69 106.871C575.067 100.334 578.514 94.6301 583.029 89.7576C587.545 84.8852 593.012 81.0823 599.548 78.2302C605.966 75.378 613.334 73.9519 621.653 73.9519C627.119 73.9519 632.11 74.4273 636.626 75.378C640.548 76.2099 644.351 77.3983 648.035 78.8244C649.105 79.1809 649.58 80.3693 649.342 81.4388L644.351 100.334C643.994 101.523 642.806 102.236 641.618 101.879C639.479 101.166 637.221 100.572 634.844 99.9779C631.635 99.146 627.951 98.7895 624.029 98.7895C615.473 98.7895 609.174 101.404 604.896 106.752C600.737 112.1 598.598 118.992 598.598 127.668C598.598 136.818 600.618 143.949 604.54 148.94C608.461 153.931 615.354 156.546 625.218 156.546C628.664 156.546 632.467 156.189 636.508 155.595C639.597 155.12 642.45 154.407 645.183 153.456C646.49 152.981 647.797 153.812 648.035 155.12L651.363 174.491C651.481 175.56 651.006 176.511 649.937 176.867C646.847 178.056 643.281 179.007 639.003 179.838C634.012 180.908 628.426 181.383 622.366 181.383C613.096 181.383 605.015 179.957 598.36 177.224C591.586 174.491 586.119 170.688 581.841 165.934C577.563 161.181 574.354 155.476 572.334 148.94C570.076 142.404 569.125 135.273 569.125 127.668Z" fill="#1444AF"/>
<path d="M661.939 176.511V47.6881C661.939 46.6185 662.652 45.6678 663.722 45.549L688.322 41.6273C689.629 41.3896 690.818 42.4592 690.818 43.7664V74.3083C690.818 75.7344 692.125 76.804 693.551 76.4474C694.977 76.0909 696.522 75.7344 698.305 75.3779C701.394 74.7837 704.247 74.546 707.099 74.546C715.418 74.546 722.191 75.7344 727.777 77.9923C733.244 80.2503 737.641 83.459 740.968 87.6184C744.296 91.7778 746.554 96.6503 747.98 102.355C749.287 108.059 750 114.357 750 121.369V176.749C750 177.937 749.049 178.888 747.861 178.888H723.261C722.073 178.888 721.122 177.937 721.122 176.749V124.815C721.122 115.546 719.933 108.891 717.557 105.088C715.18 101.166 710.783 99.2647 704.247 99.2647C701.632 99.2647 699.255 99.5024 696.997 99.9778C695.334 100.334 693.907 100.691 692.481 101.047C691.531 101.285 690.818 102.117 690.818 103.186V176.867C690.818 178.056 689.867 179.007 688.678 179.007H664.079C662.89 178.65 661.939 177.699 661.939 176.511Z" fill="#1444AF"/>
<path d="M161.322 122.036L101.827 181.531L115.02 194.724L174.515 135.229L161.322 122.036Z" fill="#1444AF"/>
<path d="M102.44 201.791C102.44 181.707 95.6665 162.811 83.0694 147.243C70.8289 132.15 53.7159 121.336 34.8203 117.058L38.9797 98.875C61.9159 104.104 82.7129 117.058 97.6868 135.478C112.779 154.136 121.098 177.666 121.217 201.672L102.44 201.791Z" fill="#FF9D29"/>
<path d="M129.173 32.5366L69.6786 92.0312L82.8716 105.224L142.366 45.7297L129.173 32.5366Z" fill="#FF9D29"/>
<path d="M165.584 36.84L90.1145 112.459L103.321 125.639L178.79 50.0199L165.584 36.84Z" fill="#1444AF"/>
<path d="M169.71 73.0294L110.215 132.524L123.408 145.717L182.903 86.2224L169.71 73.0294Z" fill="#FF9D29"/>
<path d="M71.5416 199.176C70.1156 169.228 45.5156 145.698 15.4491 145.698C15.0926 145.698 14.8549 145.698 14.4984 145.698L13.9042 127.04C14.3795 127.04 14.8549 127.04 15.4491 127.04C55.4982 127.04 88.2981 158.295 90.1995 198.225L71.5416 199.176Z" fill="#1444AF"/>
<path d="M15.687 135.002L7.24939 118.365C13.0726 115.394 18.658 111.71 23.887 107.313C26.0261 105.53 28.1652 103.51 30.1855 101.371C45.8724 85.2083 54.6666 63.9359 54.7854 41.4751L73.4433 41.5939C73.2056 68.9272 62.6289 94.8343 43.4956 114.443C41 116.939 38.3855 119.315 35.771 121.573C29.7102 126.921 22.8174 131.437 15.687 135.002Z" fill="#1444AF"/>
<path d="M120.385 191.333C115.513 192.165 110.64 192.64 105.53 192.64C66.907 192.64 34.1071 167.327 22.8173 132.507C20.084 124.069 18.5391 115.037 18.5391 105.649C18.5391 101.965 18.7768 98.2809 19.2521 94.8346C23.1738 63.1042 44.3274 36.7217 72.9679 25.0754C72.3737 18.658 71.1852 12.4783 69.5215 6.41748C32.2057 20.0841 4.51595 54.1912 0.47539 95.1911C0.118869 98.6374 0 102.203 0 105.768C0 118.484 2.25799 130.605 6.4174 141.895C21.2724 182.42 60.1331 211.417 105.649 211.417C110.878 211.417 115.988 211.06 121.098 210.228C121.217 208.208 121.217 206.188 121.217 204.167C121.098 199.77 120.86 195.492 120.385 191.333Z" fill="#1444AF"/>
<path d="M211.179 105.649C211.179 158.652 171.962 202.622 120.979 210.109C121.098 208.089 121.098 206.069 121.098 204.048C121.098 199.77 120.86 195.492 120.385 191.333C161.266 184.202 192.521 148.55 192.521 105.649C192.521 57.6375 153.541 18.6579 105.53 18.6579C94.0025 18.6579 82.9504 20.9159 72.9679 24.9564C72.3737 18.5391 71.1852 12.3594 69.5215 6.29855C80.8113 2.13914 92.933 0 105.649 0C163.762 0 211.179 47.2984 211.179 105.649Z" fill="#1444AF"/>
</svg>
